# xmcd
#
# Track frame offsets:
#	150
#	19920
#	35643
#	50033
#	67011
#
# Disc length: 1063 seconds
# Revision: 0
# Processed by: cddbd v1.5.2PL0 Copyright (c) Steve Scherf et al.
# Submitted via: dBpowerAMP V12.0
#
DISCID=46042505
DTITLE=Radney Foster - Revival (Bonus Disc)
DYEAR=2009
DGENRE=Country
TTITLE0=Guilty As Sin
TTITLE1=Long Overdue
TTITLE2=My Turn To Save You
TTITLE3=The Path That Never Ends
TTITLE4=Way Down Deep
EXTD=
EXTT0=
EXTT1=
EXTT2=
EXTT3=
EXTT4=
PLAYORDER=
